<svg width="16" height="16" viewBox="0 0 16 16" fill="none" xmlns="http://www.w3.org/2000/svg">
<g filter="url(#filter0_i_107_419)">
<path fill-rule="evenodd" clip-rule="evenodd" d="M16 8C16 12.4183 12.4183 16 8 16C3.58172 16 0 12.4183 0 8C0 3.58172 3.58172 0 8 0C12.4183 0 16 3.58172 16 8ZM13.3334 7.99997C13.3334 10.9455 10.9456 13.3333 8.00006 13.3333C5.05454 13.3333 2.66673 10.9455 2.66673 7.99997C2.66673 5.05445 5.05454 2.66664 8.00006 2.66664C10.9456 2.66664 13.3334 5.05445 13.3334 7.99997ZM8.00002 10.2857C9.26239 10.2857 10.2857 9.26239 10.2857 8.00002C10.2857 6.73766 9.26239 5.71431 8.00002 5.71431C6.73766 5.71431 5.71431 6.73766 5.71431 8.00002C5.71431 9.26239 6.73766 10.2857 8.00002 10.2857Z" fill="url(#paint0_linear_107_419)"/>
</g>
<defs>
<filter id="filter0_i_107_419" x="0" y="0" width="16" height="20" filterUnits="userSpaceOnUse" color-interpolation-filters="sRGB">
<feFlood flood-opacity="0" result="BackgroundImageFix"/>
<feBlend mode="normal" in="SourceGraphic" in2="BackgroundImageFix" result="shape"/>
<feColorMatrix in="SourceAlpha" type="matrix" values="0 0 0 0 0 0 0 0 0 0 0 0 0 0 0 0 0 0 127 0" result="hardAlpha"/>
<feOffset dy="4"/>
<feGaussianBlur stdDeviation="2"/>
<feComposite in2="hardAlpha" operator="arithmetic" k2="-1" k3="1"/>
<feColorMatrix type="matrix" values="0 0 0 0 0 0 0 0 0 0 0 0 0 0 0 0 0 0 0.25 0"/>
<feBlend mode="normal" in2="shape" result="effect1_innerShadow_107_419"/>
</filter>
<linearGradient id="paint0_linear_107_419" x1="0.952381" y1="1.52381" x2="13.7143" y2="12.7619" gradientUnits="userSpaceOnUse">
<stop stop-color="#1CEE7C" stop-opacity="0"/>
<stop offset="1" stop-color="#1348D0"/>
</linearGradient>
</defs>
</svg>
